<svg id="MBED" xmlns="http://www.w3.org/2000/svg" viewBox="0 0 207.59 30.79"><defs><style>.cls-1{fill:#008fbe;}.cls-2{fill:#333e48;}</style></defs><title>arm_mbed_lockup_horizontal</title><path class="cls-1" d="M297.06,256.21c0,4.85,3.06,8.9,7.77,8.9,4.12,0,7.91-3,7.91-8.84,0-6.11-3.79-9-7.91-9-4.72,0-7.77,4-7.77,9m15.28-14.08h6.51v28h-6.51v-2.92A10.74,10.74,0,0,1,304,271c-8.64,0-13.55-7.18-13.55-14.88,0-9.1,6.24-14.68,13.62-14.68a10.2,10.2,0,0,1,8.3,4Z" transform="translate(-290.41 -240.44)"/><path class="cls-1" d="M326.6,242.13h6.51v2.52a11.27,11.27,0,0,1,2.72-2.33,7.52,7.52,0,0,1,4-.93,9.66,9.66,0,0,1,5.12,1.33l-2.66,5.91a5.89,5.89,0,0,0-3.32-1,5.07,5.07,0,0,0-4.05,1.53c-1.79,1.93-1.79,4.58-1.79,6.44V270.1H326.6Z" transform="translate(-290.41 -240.44)"/><path class="cls-1" d="M349.14,242.13h6.51v2.59a8.62,8.62,0,0,1,6.91-3.32,8.21,8.21,0,0,1,7.24,4.12,9.91,9.91,0,0,1,8.3-4.12,9,9,0,0,1,8,4.38c.53.93,1.46,3,1.46,7V270.1H381V254.69c0-3.12-.33-4.38-.6-5a3.69,3.69,0,0,0-3.72-2.46,4.81,4.81,0,0,0-3.85,2.06c-1.13,1.59-1.26,4-1.26,6.38V270.1h-6.51V254.69c0-3.12-.33-4.38-.6-5a3.69,3.69,0,0,0-3.72-2.46,4.81,4.81,0,0,0-3.85,2.06c-1.13,1.59-1.26,4-1.26,6.38V270.1h-6.51Z" transform="translate(-290.41 -240.44)"/><path class="cls-2" d="M399.09,270.06l4.66-29.57,10.75,23.65,11-23.69,4.37,29.62h-3.19L424,250.56l-9.54,20.67-9.41-20.67-2.77,19.49Z" transform="translate(-290.41 -240.44)"/><path class="cls-2" d="M440.79,242c1.55,0,4.37.13,6.43,1.76a7,7,0,0,1,2.52,5.8,6.32,6.32,0,0,1-2.77,5.5,7,7,0,0,1,5.33,7.06,7.74,7.74,0,0,1-2.86,6,10.22,10.22,0,0,1-6.72,1.85h-7V242Zm-1.93,12.31h2.35c1.64,0,5.5-.34,5.5-4.66,0-4.62-4.54-4.7-5.42-4.7h-2.44Zm0,12.77h3.57c1.81,0,3.57-.13,4.92-1.18a4.72,4.72,0,0,0,1.85-3.86A4.54,4.54,0,0,0,446.8,258a9.77,9.77,0,0,0-4.75-.84h-3.19Z" transform="translate(-290.41 -240.44)"/><path class="cls-2" d="M472,245H460.58v8.32h11.09v2.94H460.58v10.88H472v2.94H457.47V242H472Z" transform="translate(-290.41 -240.44)"/><path class="cls-2" d="M477.16,242h5.71a15.24,15.24,0,0,1,10.33,3.28A13.66,13.66,0,0,1,498,256.07a13.34,13.34,0,0,1-4.92,10.75c-2.56,2.18-5.25,3.23-10.25,3.23h-5.67Zm3.11,25.08H483a12,12,0,0,0,8-2.52,10.72,10.72,0,0,0,3.78-8.53c0-6.72-4.71-11.09-11.8-11.09h-2.73Z" transform="translate(-290.41 -240.44)"/></svg>